<mxfile host="app.diagrams.net" modified="2020-09-30T14:31:24.292Z" agent="5.0 (Windows NT 10.0; Win64; x64) AppleWebKit/537.36 (KHTML, like Gecko) Chrome/85.0.4183.121 Safari/537.36" etag="3bENGutB4TlL0Pdtecbn" version="13.7.2" type="github">
  <diagram id="XSzSFXCYF5icY5SCVVYa" name="Page-1">
    <mxGraphModel dx="1422" dy="796" grid="1" gridSize="10" guides="1" tooltips="1" connect="1" arrows="1" fold="1" page="1" pageScale="1" pageWidth="1169" pageHeight="827" math="0" shadow="0">
      <root>
        <mxCell id="0" />
        <mxCell id="1" parent="0" />
        <mxCell id="OOOI8bQvhONiFojKNEv8-88" value="City" style="shape=table;html=1;whiteSpace=wrap;startSize=30;container=1;collapsible=0;childLayout=tableLayout;fontStyle=1;align=center;" parent="1" vertex="1">
          <mxGeometry x="980" y="52.5" width="120" height="150" as="geometry" />
        </mxCell>
        <mxCell id="OOOI8bQvhONiFojKNEv8-89" value="" style="shape=partialRectangle;html=1;whiteSpace=wrap;collapsible=0;dropTarget=0;pointerEvents=0;fillColor=none;top=0;left=0;bottom=0;right=0;points=[[0,0.5],[1,0.5]];portConstraint=eastwest;" parent="OOOI8bQvhONiFojKNEv8-88" vertex="1">
          <mxGeometry y="30" width="120" height="40" as="geometry" />
        </mxCell>
        <mxCell id="OOOI8bQvhONiFojKNEv8-90" value="CityID" style="shape=partialRectangle;html=1;whiteSpace=wrap;connectable=0;fillColor=none;top=0;left=0;bottom=0;right=0;overflow=hidden;" parent="OOOI8bQvhONiFojKNEv8-89" vertex="1">
          <mxGeometry width="80" height="40" as="geometry" />
        </mxCell>
        <mxCell id="OOOI8bQvhONiFojKNEv8-91" value="PK" style="shape=partialRectangle;html=1;whiteSpace=wrap;connectable=0;fillColor=none;top=0;left=0;bottom=0;right=0;overflow=hidden;" parent="OOOI8bQvhONiFojKNEv8-89" vertex="1">
          <mxGeometry x="80" width="40" height="40" as="geometry" />
        </mxCell>
        <mxCell id="OOOI8bQvhONiFojKNEv8-93" value="" style="shape=partialRectangle;html=1;whiteSpace=wrap;collapsible=0;dropTarget=0;pointerEvents=0;fillColor=none;top=0;left=0;bottom=0;right=0;points=[[0,0.5],[1,0.5]];portConstraint=eastwest;" parent="OOOI8bQvhONiFojKNEv8-88" vertex="1">
          <mxGeometry y="70" width="120" height="40" as="geometry" />
        </mxCell>
        <mxCell id="OOOI8bQvhONiFojKNEv8-94" value="CityName" style="shape=partialRectangle;html=1;whiteSpace=wrap;connectable=0;fillColor=none;top=0;left=0;bottom=0;right=0;overflow=hidden;" parent="OOOI8bQvhONiFojKNEv8-93" vertex="1">
          <mxGeometry width="80" height="40" as="geometry" />
        </mxCell>
        <mxCell id="OOOI8bQvhONiFojKNEv8-95" value="" style="shape=partialRectangle;html=1;whiteSpace=wrap;connectable=0;fillColor=none;top=0;left=0;bottom=0;right=0;overflow=hidden;" parent="OOOI8bQvhONiFojKNEv8-93" vertex="1">
          <mxGeometry x="80" width="40" height="40" as="geometry" />
        </mxCell>
        <mxCell id="OOOI8bQvhONiFojKNEv8-97" value="" style="shape=partialRectangle;html=1;whiteSpace=wrap;collapsible=0;dropTarget=0;pointerEvents=0;fillColor=none;top=0;left=0;bottom=0;right=0;points=[[0,0.5],[1,0.5]];portConstraint=eastwest;" parent="OOOI8bQvhONiFojKNEv8-88" vertex="1">
          <mxGeometry y="110" width="120" height="40" as="geometry" />
        </mxCell>
        <mxCell id="OOOI8bQvhONiFojKNEv8-98" value="Country" style="shape=partialRectangle;html=1;whiteSpace=wrap;connectable=0;fillColor=none;top=0;left=0;bottom=0;right=0;overflow=hidden;" parent="OOOI8bQvhONiFojKNEv8-97" vertex="1">
          <mxGeometry width="80" height="40" as="geometry" />
        </mxCell>
        <mxCell id="OOOI8bQvhONiFojKNEv8-99" value="" style="shape=partialRectangle;html=1;whiteSpace=wrap;connectable=0;fillColor=none;top=0;left=0;bottom=0;right=0;overflow=hidden;" parent="OOOI8bQvhONiFojKNEv8-97" vertex="1">
          <mxGeometry x="80" width="40" height="40" as="geometry" />
        </mxCell>
        <mxCell id="OOOI8bQvhONiFojKNEv8-114" value="Neighborhood" style="shape=table;html=1;whiteSpace=wrap;startSize=30;container=1;collapsible=0;childLayout=tableLayout;fontStyle=1;align=center;" parent="1" vertex="1">
          <mxGeometry x="740" y="70" width="160" height="150" as="geometry" />
        </mxCell>
        <mxCell id="OOOI8bQvhONiFojKNEv8-115" value="" style="shape=partialRectangle;html=1;whiteSpace=wrap;collapsible=0;dropTarget=0;pointerEvents=0;fillColor=none;top=0;left=0;bottom=0;right=0;points=[[0,0.5],[1,0.5]];portConstraint=eastwest;" parent="OOOI8bQvhONiFojKNEv8-114" vertex="1">
          <mxGeometry y="30" width="160" height="40" as="geometry" />
        </mxCell>
        <mxCell id="OOOI8bQvhONiFojKNEv8-116" value="NeighborhoodID" style="shape=partialRectangle;html=1;whiteSpace=wrap;connectable=0;fillColor=none;top=0;left=0;bottom=0;right=0;overflow=hidden;" parent="OOOI8bQvhONiFojKNEv8-115" vertex="1">
          <mxGeometry width="114" height="40" as="geometry" />
        </mxCell>
        <mxCell id="OOOI8bQvhONiFojKNEv8-117" value="PK" style="shape=partialRectangle;html=1;whiteSpace=wrap;connectable=0;fillColor=none;top=0;left=0;bottom=0;right=0;overflow=hidden;" parent="OOOI8bQvhONiFojKNEv8-115" vertex="1">
          <mxGeometry x="114" width="46" height="40" as="geometry" />
        </mxCell>
        <mxCell id="OOOI8bQvhONiFojKNEv8-119" value="" style="shape=partialRectangle;html=1;whiteSpace=wrap;collapsible=0;dropTarget=0;pointerEvents=0;fillColor=none;top=0;left=0;bottom=0;right=0;points=[[0,0.5],[1,0.5]];portConstraint=eastwest;" parent="OOOI8bQvhONiFojKNEv8-114" vertex="1">
          <mxGeometry y="70" width="160" height="40" as="geometry" />
        </mxCell>
        <mxCell id="OOOI8bQvhONiFojKNEv8-120" value="CityID" style="shape=partialRectangle;html=1;whiteSpace=wrap;connectable=0;fillColor=none;top=0;left=0;bottom=0;right=0;overflow=hidden;" parent="OOOI8bQvhONiFojKNEv8-119" vertex="1">
          <mxGeometry width="114" height="40" as="geometry" />
        </mxCell>
        <mxCell id="OOOI8bQvhONiFojKNEv8-121" value="FK" style="shape=partialRectangle;html=1;whiteSpace=wrap;connectable=0;fillColor=none;top=0;left=0;bottom=0;right=0;overflow=hidden;" parent="OOOI8bQvhONiFojKNEv8-119" vertex="1">
          <mxGeometry x="114" width="46" height="40" as="geometry" />
        </mxCell>
        <mxCell id="OOOI8bQvhONiFojKNEv8-123" value="" style="shape=partialRectangle;html=1;whiteSpace=wrap;collapsible=0;dropTarget=0;pointerEvents=0;fillColor=none;top=0;left=0;bottom=0;right=0;points=[[0,0.5],[1,0.5]];portConstraint=eastwest;" parent="OOOI8bQvhONiFojKNEv8-114" vertex="1">
          <mxGeometry y="110" width="160" height="40" as="geometry" />
        </mxCell>
        <mxCell id="OOOI8bQvhONiFojKNEv8-124" value="NeighborhoodName" style="shape=partialRectangle;html=1;whiteSpace=wrap;connectable=0;fillColor=none;top=0;left=0;bottom=0;right=0;overflow=hidden;" parent="OOOI8bQvhONiFojKNEv8-123" vertex="1">
          <mxGeometry width="114" height="40" as="geometry" />
        </mxCell>
        <mxCell id="OOOI8bQvhONiFojKNEv8-125" value="" style="shape=partialRectangle;html=1;whiteSpace=wrap;connectable=0;fillColor=none;top=0;left=0;bottom=0;right=0;overflow=hidden;" parent="OOOI8bQvhONiFojKNEv8-123" vertex="1">
          <mxGeometry x="114" width="46" height="40" as="geometry" />
        </mxCell>
        <mxCell id="OOOI8bQvhONiFojKNEv8-101" value="House" style="shape=table;html=1;whiteSpace=wrap;startSize=30;container=1;collapsible=0;childLayout=tableLayout;fontStyle=1;align=center;" parent="1" vertex="1">
          <mxGeometry x="525" y="70" width="145" height="399" as="geometry" />
        </mxCell>
        <mxCell id="OOOI8bQvhONiFojKNEv8-102" value="" style="shape=partialRectangle;html=1;whiteSpace=wrap;collapsible=0;dropTarget=0;pointerEvents=0;fillColor=none;top=0;left=0;bottom=0;right=0;points=[[0,0.5],[1,0.5]];portConstraint=eastwest;" parent="OOOI8bQvhONiFojKNEv8-101" vertex="1">
          <mxGeometry y="30" width="145" height="37" as="geometry" />
        </mxCell>
        <mxCell id="OOOI8bQvhONiFojKNEv8-103" value="HouseID" style="shape=partialRectangle;html=1;whiteSpace=wrap;connectable=0;fillColor=none;top=0;left=0;bottom=0;right=0;overflow=hidden;" parent="OOOI8bQvhONiFojKNEv8-102" vertex="1">
          <mxGeometry width="91" height="37" as="geometry" />
        </mxCell>
        <mxCell id="OOOI8bQvhONiFojKNEv8-104" value="PK" style="shape=partialRectangle;html=1;whiteSpace=wrap;connectable=0;fillColor=none;top=0;left=0;bottom=0;right=0;overflow=hidden;" parent="OOOI8bQvhONiFojKNEv8-102" vertex="1">
          <mxGeometry x="91" width="54" height="37" as="geometry" />
        </mxCell>
        <mxCell id="OOOI8bQvhONiFojKNEv8-106" value="" style="shape=partialRectangle;html=1;whiteSpace=wrap;collapsible=0;dropTarget=0;pointerEvents=0;fillColor=none;top=0;left=0;bottom=0;right=0;points=[[0,0.5],[1,0.5]];portConstraint=eastwest;" parent="OOOI8bQvhONiFojKNEv8-101" vertex="1">
          <mxGeometry y="67" width="145" height="36" as="geometry" />
        </mxCell>
        <mxCell id="OOOI8bQvhONiFojKNEv8-107" value="SaleID" style="shape=partialRectangle;html=1;whiteSpace=wrap;connectable=0;fillColor=none;top=0;left=0;bottom=0;right=0;overflow=hidden;" parent="OOOI8bQvhONiFojKNEv8-106" vertex="1">
          <mxGeometry width="91" height="36" as="geometry" />
        </mxCell>
        <mxCell id="OOOI8bQvhONiFojKNEv8-108" value="FK" style="shape=partialRectangle;html=1;whiteSpace=wrap;connectable=0;fillColor=none;top=0;left=0;bottom=0;right=0;overflow=hidden;" parent="OOOI8bQvhONiFojKNEv8-106" vertex="1">
          <mxGeometry x="91" width="54" height="36" as="geometry" />
        </mxCell>
        <mxCell id="OOOI8bQvhONiFojKNEv8-110" value="" style="shape=partialRectangle;html=1;whiteSpace=wrap;collapsible=0;dropTarget=0;pointerEvents=0;fillColor=none;top=0;left=0;bottom=0;right=0;points=[[0,0.5],[1,0.5]];portConstraint=eastwest;" parent="OOOI8bQvhONiFojKNEv8-101" vertex="1">
          <mxGeometry y="103" width="145" height="37" as="geometry" />
        </mxCell>
        <mxCell id="OOOI8bQvhONiFojKNEv8-111" value="NeighborhoodID" style="shape=partialRectangle;html=1;whiteSpace=wrap;connectable=0;fillColor=none;top=0;left=0;bottom=0;right=0;overflow=hidden;" parent="OOOI8bQvhONiFojKNEv8-110" vertex="1">
          <mxGeometry width="91" height="37" as="geometry" />
        </mxCell>
        <mxCell id="OOOI8bQvhONiFojKNEv8-112" value="FK" style="shape=partialRectangle;html=1;whiteSpace=wrap;connectable=0;fillColor=none;top=0;left=0;bottom=0;right=0;overflow=hidden;" parent="OOOI8bQvhONiFojKNEv8-110" vertex="1">
          <mxGeometry x="91" width="54" height="37" as="geometry" />
        </mxCell>
        <mxCell id="OOOI8bQvhONiFojKNEv8-190" style="shape=partialRectangle;html=1;whiteSpace=wrap;collapsible=0;dropTarget=0;pointerEvents=0;fillColor=none;top=0;left=0;bottom=0;right=0;points=[[0,0.5],[1,0.5]];portConstraint=eastwest;" parent="OOOI8bQvhONiFojKNEv8-101" vertex="1">
          <mxGeometry y="140" width="145" height="37" as="geometry" />
        </mxCell>
        <mxCell id="OOOI8bQvhONiFojKNEv8-191" value="TypeID" style="shape=partialRectangle;html=1;whiteSpace=wrap;connectable=0;fillColor=none;top=0;left=0;bottom=0;right=0;overflow=hidden;" parent="OOOI8bQvhONiFojKNEv8-190" vertex="1">
          <mxGeometry width="91" height="37" as="geometry" />
        </mxCell>
        <mxCell id="OOOI8bQvhONiFojKNEv8-192" value="FK" style="shape=partialRectangle;html=1;whiteSpace=wrap;connectable=0;fillColor=none;top=0;left=0;bottom=0;right=0;overflow=hidden;" parent="OOOI8bQvhONiFojKNEv8-190" vertex="1">
          <mxGeometry x="91" width="54" height="37" as="geometry" />
        </mxCell>
        <mxCell id="OOOI8bQvhONiFojKNEv8-232" style="shape=partialRectangle;html=1;whiteSpace=wrap;collapsible=0;dropTarget=0;pointerEvents=0;fillColor=none;top=0;left=0;bottom=0;right=0;points=[[0,0.5],[1,0.5]];portConstraint=eastwest;" parent="OOOI8bQvhONiFojKNEv8-101" vertex="1">
          <mxGeometry y="177" width="145" height="37" as="geometry" />
        </mxCell>
        <mxCell id="OOOI8bQvhONiFojKNEv8-233" value="OwnerID" style="shape=partialRectangle;html=1;whiteSpace=wrap;connectable=0;fillColor=none;top=0;left=0;bottom=0;right=0;overflow=hidden;" parent="OOOI8bQvhONiFojKNEv8-232" vertex="1">
          <mxGeometry width="91" height="37" as="geometry" />
        </mxCell>
        <mxCell id="OOOI8bQvhONiFojKNEv8-234" value="FK" style="shape=partialRectangle;html=1;whiteSpace=wrap;connectable=0;fillColor=none;top=0;left=0;bottom=0;right=0;overflow=hidden;" parent="OOOI8bQvhONiFojKNEv8-232" vertex="1">
          <mxGeometry x="91" width="54" height="37" as="geometry" />
        </mxCell>
        <mxCell id="OOOI8bQvhONiFojKNEv8-193" style="shape=partialRectangle;html=1;whiteSpace=wrap;collapsible=0;dropTarget=0;pointerEvents=0;fillColor=none;top=0;left=0;bottom=0;right=0;points=[[0,0.5],[1,0.5]];portConstraint=eastwest;" parent="OOOI8bQvhONiFojKNEv8-101" vertex="1">
          <mxGeometry y="214" width="145" height="37" as="geometry" />
        </mxCell>
        <mxCell id="OOOI8bQvhONiFojKNEv8-194" value="Price" style="shape=partialRectangle;html=1;whiteSpace=wrap;connectable=0;fillColor=none;top=0;left=0;bottom=0;right=0;overflow=hidden;" parent="OOOI8bQvhONiFojKNEv8-193" vertex="1">
          <mxGeometry width="91" height="37" as="geometry" />
        </mxCell>
        <mxCell id="OOOI8bQvhONiFojKNEv8-195" style="shape=partialRectangle;html=1;whiteSpace=wrap;connectable=0;fillColor=none;top=0;left=0;bottom=0;right=0;overflow=hidden;" parent="OOOI8bQvhONiFojKNEv8-193" vertex="1">
          <mxGeometry x="91" width="54" height="37" as="geometry" />
        </mxCell>
        <mxCell id="OOOI8bQvhONiFojKNEv8-196" style="shape=partialRectangle;html=1;whiteSpace=wrap;collapsible=0;dropTarget=0;pointerEvents=0;fillColor=none;top=0;left=0;bottom=0;right=0;points=[[0,0.5],[1,0.5]];portConstraint=eastwest;" parent="OOOI8bQvhONiFojKNEv8-101" vertex="1">
          <mxGeometry y="251" width="145" height="37" as="geometry" />
        </mxCell>
        <mxCell id="OOOI8bQvhONiFojKNEv8-197" value="StreetName" style="shape=partialRectangle;html=1;whiteSpace=wrap;connectable=0;fillColor=none;top=0;left=0;bottom=0;right=0;overflow=hidden;" parent="OOOI8bQvhONiFojKNEv8-196" vertex="1">
          <mxGeometry width="91" height="37" as="geometry" />
        </mxCell>
        <mxCell id="OOOI8bQvhONiFojKNEv8-198" style="shape=partialRectangle;html=1;whiteSpace=wrap;connectable=0;fillColor=none;top=0;left=0;bottom=0;right=0;overflow=hidden;" parent="OOOI8bQvhONiFojKNEv8-196" vertex="1">
          <mxGeometry x="91" width="54" height="37" as="geometry" />
        </mxCell>
        <mxCell id="OOOI8bQvhONiFojKNEv8-199" style="shape=partialRectangle;html=1;whiteSpace=wrap;collapsible=0;dropTarget=0;pointerEvents=0;fillColor=none;top=0;left=0;bottom=0;right=0;points=[[0,0.5],[1,0.5]];portConstraint=eastwest;" parent="OOOI8bQvhONiFojKNEv8-101" vertex="1">
          <mxGeometry y="288" width="145" height="37" as="geometry" />
        </mxCell>
        <mxCell id="OOOI8bQvhONiFojKNEv8-200" value="HouseNumber" style="shape=partialRectangle;html=1;whiteSpace=wrap;connectable=0;fillColor=none;top=0;left=0;bottom=0;right=0;overflow=hidden;" parent="OOOI8bQvhONiFojKNEv8-199" vertex="1">
          <mxGeometry width="91" height="37" as="geometry" />
        </mxCell>
        <mxCell id="OOOI8bQvhONiFojKNEv8-201" style="shape=partialRectangle;html=1;whiteSpace=wrap;connectable=0;fillColor=none;top=0;left=0;bottom=0;right=0;overflow=hidden;" parent="OOOI8bQvhONiFojKNEv8-199" vertex="1">
          <mxGeometry x="91" width="54" height="37" as="geometry" />
        </mxCell>
        <mxCell id="OOOI8bQvhONiFojKNEv8-202" style="shape=partialRectangle;html=1;whiteSpace=wrap;collapsible=0;dropTarget=0;pointerEvents=0;fillColor=none;top=0;left=0;bottom=0;right=0;points=[[0,0.5],[1,0.5]];portConstraint=eastwest;" parent="OOOI8bQvhONiFojKNEv8-101" vertex="1">
          <mxGeometry y="325" width="145" height="37" as="geometry" />
        </mxCell>
        <mxCell id="OOOI8bQvhONiFojKNEv8-203" value="NumOfRooms" style="shape=partialRectangle;html=1;whiteSpace=wrap;connectable=0;fillColor=none;top=0;left=0;bottom=0;right=0;overflow=hidden;" parent="OOOI8bQvhONiFojKNEv8-202" vertex="1">
          <mxGeometry width="91" height="37" as="geometry" />
        </mxCell>
        <mxCell id="OOOI8bQvhONiFojKNEv8-204" style="shape=partialRectangle;html=1;whiteSpace=wrap;connectable=0;fillColor=none;top=0;left=0;bottom=0;right=0;overflow=hidden;" parent="OOOI8bQvhONiFojKNEv8-202" vertex="1">
          <mxGeometry x="91" width="54" height="37" as="geometry" />
        </mxCell>
        <mxCell id="OOOI8bQvhONiFojKNEv8-205" style="shape=partialRectangle;html=1;whiteSpace=wrap;collapsible=0;dropTarget=0;pointerEvents=0;fillColor=none;top=0;left=0;bottom=0;right=0;points=[[0,0.5],[1,0.5]];portConstraint=eastwest;" parent="OOOI8bQvhONiFojKNEv8-101" vertex="1">
          <mxGeometry y="362" width="145" height="37" as="geometry" />
        </mxCell>
        <mxCell id="OOOI8bQvhONiFojKNEv8-206" value="Description" style="shape=partialRectangle;html=1;whiteSpace=wrap;connectable=0;fillColor=none;top=0;left=0;bottom=0;right=0;overflow=hidden;" parent="OOOI8bQvhONiFojKNEv8-205" vertex="1">
          <mxGeometry width="91" height="37" as="geometry" />
        </mxCell>
        <mxCell id="OOOI8bQvhONiFojKNEv8-207" style="shape=partialRectangle;html=1;whiteSpace=wrap;connectable=0;fillColor=none;top=0;left=0;bottom=0;right=0;overflow=hidden;" parent="OOOI8bQvhONiFojKNEv8-205" vertex="1">
          <mxGeometry x="91" width="54" height="37" as="geometry" />
        </mxCell>
        <mxCell id="OOOI8bQvhONiFojKNEv8-127" value="Sale" style="shape=table;html=1;whiteSpace=wrap;startSize=30;container=1;collapsible=0;childLayout=tableLayout;fontStyle=1;align=center;" parent="1" vertex="1">
          <mxGeometry x="310" y="60" width="120" height="210" as="geometry" />
        </mxCell>
        <mxCell id="OOOI8bQvhONiFojKNEv8-128" value="" style="shape=partialRectangle;html=1;whiteSpace=wrap;collapsible=0;dropTarget=0;pointerEvents=0;fillColor=none;top=0;left=0;bottom=0;right=0;points=[[0,0.5],[1,0.5]];portConstraint=eastwest;" parent="OOOI8bQvhONiFojKNEv8-127" vertex="1">
          <mxGeometry y="30" width="120" height="30" as="geometry" />
        </mxCell>
        <mxCell id="OOOI8bQvhONiFojKNEv8-129" value="SaleID" style="shape=partialRectangle;html=1;whiteSpace=wrap;connectable=0;fillColor=none;top=0;left=0;bottom=0;right=0;overflow=hidden;" parent="OOOI8bQvhONiFojKNEv8-128" vertex="1">
          <mxGeometry width="80" height="30" as="geometry" />
        </mxCell>
        <mxCell id="OOOI8bQvhONiFojKNEv8-130" value="PK" style="shape=partialRectangle;html=1;whiteSpace=wrap;connectable=0;fillColor=none;top=0;left=0;bottom=0;right=0;overflow=hidden;" parent="OOOI8bQvhONiFojKNEv8-128" vertex="1">
          <mxGeometry x="80" width="40" height="30" as="geometry" />
        </mxCell>
        <mxCell id="OOOI8bQvhONiFojKNEv8-132" value="" style="shape=partialRectangle;html=1;whiteSpace=wrap;collapsible=0;dropTarget=0;pointerEvents=0;fillColor=none;top=0;left=0;bottom=0;right=0;points=[[0,0.5],[1,0.5]];portConstraint=eastwest;" parent="OOOI8bQvhONiFojKNEv8-127" vertex="1">
          <mxGeometry y="60" width="120" height="30" as="geometry" />
        </mxCell>
        <mxCell id="OOOI8bQvhONiFojKNEv8-133" value="SalesmanID" style="shape=partialRectangle;html=1;whiteSpace=wrap;connectable=0;fillColor=none;top=0;left=0;bottom=0;right=0;overflow=hidden;" parent="OOOI8bQvhONiFojKNEv8-132" vertex="1">
          <mxGeometry width="80" height="30" as="geometry" />
        </mxCell>
        <mxCell id="OOOI8bQvhONiFojKNEv8-134" value="FK" style="shape=partialRectangle;html=1;whiteSpace=wrap;connectable=0;fillColor=none;top=0;left=0;bottom=0;right=0;overflow=hidden;" parent="OOOI8bQvhONiFojKNEv8-132" vertex="1">
          <mxGeometry x="80" width="40" height="30" as="geometry" />
        </mxCell>
        <mxCell id="OOOI8bQvhONiFojKNEv8-136" value="" style="shape=partialRectangle;html=1;whiteSpace=wrap;collapsible=0;dropTarget=0;pointerEvents=0;fillColor=none;top=0;left=0;bottom=0;right=0;points=[[0,0.5],[1,0.5]];portConstraint=eastwest;" parent="OOOI8bQvhONiFojKNEv8-127" vertex="1">
          <mxGeometry y="90" width="120" height="30" as="geometry" />
        </mxCell>
        <mxCell id="OOOI8bQvhONiFojKNEv8-137" value="HouseID" style="shape=partialRectangle;html=1;whiteSpace=wrap;connectable=0;fillColor=none;top=0;left=0;bottom=0;right=0;overflow=hidden;" parent="OOOI8bQvhONiFojKNEv8-136" vertex="1">
          <mxGeometry width="80" height="30" as="geometry" />
        </mxCell>
        <mxCell id="OOOI8bQvhONiFojKNEv8-138" value="FK" style="shape=partialRectangle;html=1;whiteSpace=wrap;connectable=0;fillColor=none;top=0;left=0;bottom=0;right=0;overflow=hidden;" parent="OOOI8bQvhONiFojKNEv8-136" vertex="1">
          <mxGeometry x="80" width="40" height="30" as="geometry" />
        </mxCell>
        <mxCell id="OOOI8bQvhONiFojKNEv8-208" style="shape=partialRectangle;html=1;whiteSpace=wrap;collapsible=0;dropTarget=0;pointerEvents=0;fillColor=none;top=0;left=0;bottom=0;right=0;points=[[0,0.5],[1,0.5]];portConstraint=eastwest;" parent="OOOI8bQvhONiFojKNEv8-127" vertex="1">
          <mxGeometry y="120" width="120" height="30" as="geometry" />
        </mxCell>
        <mxCell id="OOOI8bQvhONiFojKNEv8-209" value="OwnerID" style="shape=partialRectangle;html=1;whiteSpace=wrap;connectable=0;fillColor=none;top=0;left=0;bottom=0;right=0;overflow=hidden;" parent="OOOI8bQvhONiFojKNEv8-208" vertex="1">
          <mxGeometry width="80" height="30" as="geometry" />
        </mxCell>
        <mxCell id="OOOI8bQvhONiFojKNEv8-210" value="FK" style="shape=partialRectangle;html=1;whiteSpace=wrap;connectable=0;fillColor=none;top=0;left=0;bottom=0;right=0;overflow=hidden;" parent="OOOI8bQvhONiFojKNEv8-208" vertex="1">
          <mxGeometry x="80" width="40" height="30" as="geometry" />
        </mxCell>
        <mxCell id="OOOI8bQvhONiFojKNEv8-211" style="shape=partialRectangle;html=1;whiteSpace=wrap;collapsible=0;dropTarget=0;pointerEvents=0;fillColor=none;top=0;left=0;bottom=0;right=0;points=[[0,0.5],[1,0.5]];portConstraint=eastwest;" parent="OOOI8bQvhONiFojKNEv8-127" vertex="1">
          <mxGeometry y="150" width="120" height="30" as="geometry" />
        </mxCell>
        <mxCell id="OOOI8bQvhONiFojKNEv8-212" value="SaleDate" style="shape=partialRectangle;html=1;whiteSpace=wrap;connectable=0;fillColor=none;top=0;left=0;bottom=0;right=0;overflow=hidden;" parent="OOOI8bQvhONiFojKNEv8-211" vertex="1">
          <mxGeometry width="80" height="30" as="geometry" />
        </mxCell>
        <mxCell id="OOOI8bQvhONiFojKNEv8-213" style="shape=partialRectangle;html=1;whiteSpace=wrap;connectable=0;fillColor=none;top=0;left=0;bottom=0;right=0;overflow=hidden;" parent="OOOI8bQvhONiFojKNEv8-211" vertex="1">
          <mxGeometry x="80" width="40" height="30" as="geometry" />
        </mxCell>
        <mxCell id="OOOI8bQvhONiFojKNEv8-214" style="shape=partialRectangle;html=1;whiteSpace=wrap;collapsible=0;dropTarget=0;pointerEvents=0;fillColor=none;top=0;left=0;bottom=0;right=0;points=[[0,0.5],[1,0.5]];portConstraint=eastwest;" parent="OOOI8bQvhONiFojKNEv8-127" vertex="1">
          <mxGeometry y="180" width="120" height="30" as="geometry" />
        </mxCell>
        <mxCell id="OOOI8bQvhONiFojKNEv8-215" value="ActualPrice" style="shape=partialRectangle;html=1;whiteSpace=wrap;connectable=0;fillColor=none;top=0;left=0;bottom=0;right=0;overflow=hidden;" parent="OOOI8bQvhONiFojKNEv8-214" vertex="1">
          <mxGeometry width="80" height="30" as="geometry" />
        </mxCell>
        <mxCell id="OOOI8bQvhONiFojKNEv8-216" style="shape=partialRectangle;html=1;whiteSpace=wrap;connectable=0;fillColor=none;top=0;left=0;bottom=0;right=0;overflow=hidden;" parent="OOOI8bQvhONiFojKNEv8-214" vertex="1">
          <mxGeometry x="80" width="40" height="30" as="geometry" />
        </mxCell>
        <mxCell id="OOOI8bQvhONiFojKNEv8-226" style="edgeStyle=orthogonalEdgeStyle;rounded=0;orthogonalLoop=1;jettySize=auto;html=1;exitX=0;exitY=0.5;exitDx=0;exitDy=0;entryX=1;entryY=0.5;entryDx=0;entryDy=0;" parent="1" source="OOOI8bQvhONiFojKNEv8-89" target="OOOI8bQvhONiFojKNEv8-119" edge="1">
          <mxGeometry relative="1" as="geometry" />
        </mxCell>
        <mxCell id="OOOI8bQvhONiFojKNEv8-166" value="Customer" style="shape=table;html=1;whiteSpace=wrap;startSize=30;container=1;collapsible=0;childLayout=tableLayout;fontStyle=1;align=center;" parent="1" vertex="1">
          <mxGeometry x="310" y="330" width="140" height="190" as="geometry" />
        </mxCell>
        <mxCell id="OOOI8bQvhONiFojKNEv8-167" value="" style="shape=partialRectangle;html=1;whiteSpace=wrap;collapsible=0;dropTarget=0;pointerEvents=0;fillColor=none;top=0;left=0;bottom=0;right=0;points=[[0,0.5],[1,0.5]];portConstraint=eastwest;" parent="OOOI8bQvhONiFojKNEv8-166" vertex="1">
          <mxGeometry y="30" width="140" height="40" as="geometry" />
        </mxCell>
        <mxCell id="OOOI8bQvhONiFojKNEv8-168" value="CustomerID" style="shape=partialRectangle;html=1;whiteSpace=wrap;connectable=0;fillColor=none;top=0;left=0;bottom=0;right=0;overflow=hidden;" parent="OOOI8bQvhONiFojKNEv8-167" vertex="1">
          <mxGeometry width="93" height="40" as="geometry" />
        </mxCell>
        <mxCell id="OOOI8bQvhONiFojKNEv8-169" value="PK" style="shape=partialRectangle;html=1;whiteSpace=wrap;connectable=0;fillColor=none;top=0;left=0;bottom=0;right=0;overflow=hidden;" parent="OOOI8bQvhONiFojKNEv8-167" vertex="1">
          <mxGeometry x="93" width="47" height="40" as="geometry" />
        </mxCell>
        <mxCell id="OOOI8bQvhONiFojKNEv8-171" value="" style="shape=partialRectangle;html=1;whiteSpace=wrap;collapsible=0;dropTarget=0;pointerEvents=0;fillColor=none;top=0;left=0;bottom=0;right=0;points=[[0,0.5],[1,0.5]];portConstraint=eastwest;" parent="OOOI8bQvhONiFojKNEv8-166" vertex="1">
          <mxGeometry y="70" width="140" height="40" as="geometry" />
        </mxCell>
        <mxCell id="OOOI8bQvhONiFojKNEv8-172" value="CustomerName" style="shape=partialRectangle;html=1;whiteSpace=wrap;connectable=0;fillColor=none;top=0;left=0;bottom=0;right=0;overflow=hidden;" parent="OOOI8bQvhONiFojKNEv8-171" vertex="1">
          <mxGeometry width="93" height="40" as="geometry" />
        </mxCell>
        <mxCell id="OOOI8bQvhONiFojKNEv8-173" value="" style="shape=partialRectangle;html=1;whiteSpace=wrap;connectable=0;fillColor=none;top=0;left=0;bottom=0;right=0;overflow=hidden;" parent="OOOI8bQvhONiFojKNEv8-171" vertex="1">
          <mxGeometry x="93" width="47" height="40" as="geometry" />
        </mxCell>
        <mxCell id="OOOI8bQvhONiFojKNEv8-175" value="" style="shape=partialRectangle;html=1;whiteSpace=wrap;collapsible=0;dropTarget=0;pointerEvents=0;fillColor=none;top=0;left=0;bottom=0;right=0;points=[[0,0.5],[1,0.5]];portConstraint=eastwest;" parent="OOOI8bQvhONiFojKNEv8-166" vertex="1">
          <mxGeometry y="110" width="140" height="40" as="geometry" />
        </mxCell>
        <mxCell id="OOOI8bQvhONiFojKNEv8-176" value="PhoneNumber" style="shape=partialRectangle;html=1;whiteSpace=wrap;connectable=0;fillColor=none;top=0;left=0;bottom=0;right=0;overflow=hidden;" parent="OOOI8bQvhONiFojKNEv8-175" vertex="1">
          <mxGeometry width="93" height="40" as="geometry" />
        </mxCell>
        <mxCell id="OOOI8bQvhONiFojKNEv8-177" value="" style="shape=partialRectangle;html=1;whiteSpace=wrap;connectable=0;fillColor=none;top=0;left=0;bottom=0;right=0;overflow=hidden;" parent="OOOI8bQvhONiFojKNEv8-175" vertex="1">
          <mxGeometry x="93" width="47" height="40" as="geometry" />
        </mxCell>
        <mxCell id="OOOI8bQvhONiFojKNEv8-223" style="shape=partialRectangle;html=1;whiteSpace=wrap;collapsible=0;dropTarget=0;pointerEvents=0;fillColor=none;top=0;left=0;bottom=0;right=0;points=[[0,0.5],[1,0.5]];portConstraint=eastwest;" parent="OOOI8bQvhONiFojKNEv8-166" vertex="1">
          <mxGeometry y="150" width="140" height="40" as="geometry" />
        </mxCell>
        <mxCell id="OOOI8bQvhONiFojKNEv8-224" value="CustomerStatus" style="shape=partialRectangle;html=1;whiteSpace=wrap;connectable=0;fillColor=none;top=0;left=0;bottom=0;right=0;overflow=hidden;" parent="OOOI8bQvhONiFojKNEv8-223" vertex="1">
          <mxGeometry width="93" height="40" as="geometry" />
        </mxCell>
        <mxCell id="OOOI8bQvhONiFojKNEv8-225" style="shape=partialRectangle;html=1;whiteSpace=wrap;connectable=0;fillColor=none;top=0;left=0;bottom=0;right=0;overflow=hidden;" parent="OOOI8bQvhONiFojKNEv8-223" vertex="1">
          <mxGeometry x="93" width="47" height="40" as="geometry" />
        </mxCell>
        <mxCell id="OOOI8bQvhONiFojKNEv8-140" value="Salesman" style="shape=table;html=1;whiteSpace=wrap;startSize=30;container=1;collapsible=0;childLayout=tableLayout;fontStyle=1;align=center;" parent="1" vertex="1">
          <mxGeometry x="90" y="130" width="140" height="150" as="geometry" />
        </mxCell>
        <mxCell id="OOOI8bQvhONiFojKNEv8-141" value="" style="shape=partialRectangle;html=1;whiteSpace=wrap;collapsible=0;dropTarget=0;pointerEvents=0;fillColor=none;top=0;left=0;bottom=0;right=0;points=[[0,0.5],[1,0.5]];portConstraint=eastwest;" parent="OOOI8bQvhONiFojKNEv8-140" vertex="1">
          <mxGeometry y="30" width="140" height="40" as="geometry" />
        </mxCell>
        <mxCell id="OOOI8bQvhONiFojKNEv8-142" value="SalesmanID" style="shape=partialRectangle;html=1;whiteSpace=wrap;connectable=0;fillColor=none;top=0;left=0;bottom=0;right=0;overflow=hidden;" parent="OOOI8bQvhONiFojKNEv8-141" vertex="1">
          <mxGeometry width="94" height="40" as="geometry" />
        </mxCell>
        <mxCell id="OOOI8bQvhONiFojKNEv8-143" value="PK" style="shape=partialRectangle;html=1;whiteSpace=wrap;connectable=0;fillColor=none;top=0;left=0;bottom=0;right=0;overflow=hidden;" parent="OOOI8bQvhONiFojKNEv8-141" vertex="1">
          <mxGeometry x="94" width="46" height="40" as="geometry" />
        </mxCell>
        <mxCell id="OOOI8bQvhONiFojKNEv8-145" value="" style="shape=partialRectangle;html=1;whiteSpace=wrap;collapsible=0;dropTarget=0;pointerEvents=0;fillColor=none;top=0;left=0;bottom=0;right=0;points=[[0,0.5],[1,0.5]];portConstraint=eastwest;" parent="OOOI8bQvhONiFojKNEv8-140" vertex="1">
          <mxGeometry y="70" width="140" height="40" as="geometry" />
        </mxCell>
        <mxCell id="OOOI8bQvhONiFojKNEv8-146" value="SalesmanName" style="shape=partialRectangle;html=1;whiteSpace=wrap;connectable=0;fillColor=none;top=0;left=0;bottom=0;right=0;overflow=hidden;" parent="OOOI8bQvhONiFojKNEv8-145" vertex="1">
          <mxGeometry width="94" height="40" as="geometry" />
        </mxCell>
        <mxCell id="OOOI8bQvhONiFojKNEv8-147" value="" style="shape=partialRectangle;html=1;whiteSpace=wrap;connectable=0;fillColor=none;top=0;left=0;bottom=0;right=0;overflow=hidden;" parent="OOOI8bQvhONiFojKNEv8-145" vertex="1">
          <mxGeometry x="94" width="46" height="40" as="geometry" />
        </mxCell>
        <mxCell id="OOOI8bQvhONiFojKNEv8-149" value="" style="shape=partialRectangle;html=1;whiteSpace=wrap;collapsible=0;dropTarget=0;pointerEvents=0;fillColor=none;top=0;left=0;bottom=0;right=0;points=[[0,0.5],[1,0.5]];portConstraint=eastwest;" parent="OOOI8bQvhONiFojKNEv8-140" vertex="1">
          <mxGeometry y="110" width="140" height="40" as="geometry" />
        </mxCell>
        <mxCell id="OOOI8bQvhONiFojKNEv8-150" value="PhoneNumber" style="shape=partialRectangle;html=1;whiteSpace=wrap;connectable=0;fillColor=none;top=0;left=0;bottom=0;right=0;overflow=hidden;" parent="OOOI8bQvhONiFojKNEv8-149" vertex="1">
          <mxGeometry width="94" height="40" as="geometry" />
        </mxCell>
        <mxCell id="OOOI8bQvhONiFojKNEv8-151" value="" style="shape=partialRectangle;html=1;whiteSpace=wrap;connectable=0;fillColor=none;top=0;left=0;bottom=0;right=0;overflow=hidden;" parent="OOOI8bQvhONiFojKNEv8-149" vertex="1">
          <mxGeometry x="94" width="46" height="40" as="geometry" />
        </mxCell>
        <mxCell id="OOOI8bQvhONiFojKNEv8-227" style="edgeStyle=orthogonalEdgeStyle;rounded=0;orthogonalLoop=1;jettySize=auto;html=1;exitX=1;exitY=0.5;exitDx=0;exitDy=0;entryX=0;entryY=0.5;entryDx=0;entryDy=0;" parent="1" source="OOOI8bQvhONiFojKNEv8-141" target="OOOI8bQvhONiFojKNEv8-132" edge="1">
          <mxGeometry relative="1" as="geometry" />
        </mxCell>
        <mxCell id="OOOI8bQvhONiFojKNEv8-228" style="edgeStyle=orthogonalEdgeStyle;rounded=0;orthogonalLoop=1;jettySize=auto;html=1;exitX=0;exitY=0.5;exitDx=0;exitDy=0;entryX=1;entryY=0.5;entryDx=0;entryDy=0;" parent="1" source="OOOI8bQvhONiFojKNEv8-102" target="OOOI8bQvhONiFojKNEv8-136" edge="1">
          <mxGeometry relative="1" as="geometry">
            <Array as="points">
              <mxPoint x="500" y="119" />
              <mxPoint x="500" y="165" />
            </Array>
          </mxGeometry>
        </mxCell>
        <mxCell id="OOOI8bQvhONiFojKNEv8-229" style="edgeStyle=orthogonalEdgeStyle;rounded=0;orthogonalLoop=1;jettySize=auto;html=1;exitX=0;exitY=0.5;exitDx=0;exitDy=0;entryX=1.007;entryY=0.675;entryDx=0;entryDy=0;entryPerimeter=0;" parent="1" source="OOOI8bQvhONiFojKNEv8-232" target="OOOI8bQvhONiFojKNEv8-167" edge="1">
          <mxGeometry relative="1" as="geometry" />
        </mxCell>
        <mxCell id="OOOI8bQvhONiFojKNEv8-153" value="HouseType" style="shape=table;html=1;whiteSpace=wrap;startSize=30;container=1;collapsible=0;childLayout=tableLayout;fontStyle=1;align=center;" parent="1" vertex="1">
          <mxGeometry x="750" y="260" width="120" height="110" as="geometry" />
        </mxCell>
        <mxCell id="OOOI8bQvhONiFojKNEv8-154" value="" style="shape=partialRectangle;html=1;whiteSpace=wrap;collapsible=0;dropTarget=0;pointerEvents=0;fillColor=none;top=0;left=0;bottom=0;right=0;points=[[0,0.5],[1,0.5]];portConstraint=eastwest;" parent="OOOI8bQvhONiFojKNEv8-153" vertex="1">
          <mxGeometry y="30" width="120" height="40" as="geometry" />
        </mxCell>
        <mxCell id="OOOI8bQvhONiFojKNEv8-155" value="TypeID" style="shape=partialRectangle;html=1;whiteSpace=wrap;connectable=0;fillColor=none;top=0;left=0;bottom=0;right=0;overflow=hidden;" parent="OOOI8bQvhONiFojKNEv8-154" vertex="1">
          <mxGeometry width="80" height="40" as="geometry" />
        </mxCell>
        <mxCell id="OOOI8bQvhONiFojKNEv8-156" value="PK" style="shape=partialRectangle;html=1;whiteSpace=wrap;connectable=0;fillColor=none;top=0;left=0;bottom=0;right=0;overflow=hidden;" parent="OOOI8bQvhONiFojKNEv8-154" vertex="1">
          <mxGeometry x="80" width="40" height="40" as="geometry" />
        </mxCell>
        <mxCell id="OOOI8bQvhONiFojKNEv8-158" value="" style="shape=partialRectangle;html=1;whiteSpace=wrap;collapsible=0;dropTarget=0;pointerEvents=0;fillColor=none;top=0;left=0;bottom=0;right=0;points=[[0,0.5],[1,0.5]];portConstraint=eastwest;" parent="OOOI8bQvhONiFojKNEv8-153" vertex="1">
          <mxGeometry y="70" width="120" height="40" as="geometry" />
        </mxCell>
        <mxCell id="OOOI8bQvhONiFojKNEv8-159" value="TypeName" style="shape=partialRectangle;html=1;whiteSpace=wrap;connectable=0;fillColor=none;top=0;left=0;bottom=0;right=0;overflow=hidden;" parent="OOOI8bQvhONiFojKNEv8-158" vertex="1">
          <mxGeometry width="80" height="40" as="geometry" />
        </mxCell>
        <mxCell id="OOOI8bQvhONiFojKNEv8-160" value="" style="shape=partialRectangle;html=1;whiteSpace=wrap;connectable=0;fillColor=none;top=0;left=0;bottom=0;right=0;overflow=hidden;" parent="OOOI8bQvhONiFojKNEv8-158" vertex="1">
          <mxGeometry x="80" width="40" height="40" as="geometry" />
        </mxCell>
        <mxCell id="OOOI8bQvhONiFojKNEv8-231" style="edgeStyle=orthogonalEdgeStyle;rounded=0;orthogonalLoop=1;jettySize=auto;html=1;exitX=1;exitY=0.5;exitDx=0;exitDy=0;entryX=0;entryY=0.5;entryDx=0;entryDy=0;" parent="1" source="OOOI8bQvhONiFojKNEv8-190" target="OOOI8bQvhONiFojKNEv8-154" edge="1">
          <mxGeometry relative="1" as="geometry" />
        </mxCell>
        <mxCell id="OOOI8bQvhONiFojKNEv8-235" style="edgeStyle=orthogonalEdgeStyle;rounded=0;orthogonalLoop=1;jettySize=auto;html=1;entryX=0;entryY=0.5;entryDx=0;entryDy=0;" parent="1" source="OOOI8bQvhONiFojKNEv8-128" target="OOOI8bQvhONiFojKNEv8-106" edge="1">
          <mxGeometry relative="1" as="geometry">
            <Array as="points">
              <mxPoint x="470" y="105" />
              <mxPoint x="470" y="155" />
            </Array>
          </mxGeometry>
        </mxCell>
        <mxCell id="OOOI8bQvhONiFojKNEv8-230" style="edgeStyle=orthogonalEdgeStyle;rounded=0;orthogonalLoop=1;jettySize=auto;html=1;exitX=0;exitY=0.5;exitDx=0;exitDy=0;entryX=1;entryY=0.5;entryDx=0;entryDy=0;" parent="1" source="OOOI8bQvhONiFojKNEv8-115" target="OOOI8bQvhONiFojKNEv8-110" edge="1">
          <mxGeometry relative="1" as="geometry" />
        </mxCell>
      </root>
    </mxGraphModel>
  </diagram>
</mxfile>
